Coordinates
version=1
nRows=19
nColumns=34
inDegrees=yes

Units are S.I. units (second, meters, Newtons, ...)
If the header above contains a line with 'inDegrees', this indicates whether rotational values are in degrees (yes) or radians (no).

endheader
time	pelvis_tilt	pelvis_list	pelvis_rotation	pelvis_tx	pelvis_ty	pelvis_tz	hip_flexion_r	hip_adduction_r	hip_rotation_r	knee_angle_r	ankle_angle_r	subtalar_angle_r	mtp_angle_r	hip_flexion_l	hip_adduction_l	hip_rotation_l	knee_angle_l	ankle_angle_l	subtalar_angle_l	mtp_angle_l	lumbar_extension	lumbar_bending	lumbar_rotation	arm_flex_r	arm_add_r	arm_rot_r	elbow_flex_r	pro_sup_r	arm_flex_l	arm_add_l	arm_rot_l	elbow_flex_l	pro_sup_l
      2.10000000	     -2.82053925	     -1.03036137	     -1.97467741	      1.61967081	      0.85235787	     -0.04314910	      4.66689100	     -4.06581032	     -6.26663385	      6.55655558	      4.84599048	    -11.96905004	      0.00000000	      3.81292540	     -6.65869618	     -7.01146969	      6.69079182	      4.63710019	     -6.44191122	      0.00000000	    -10.95931833	      2.14906282	     -2.23971343	      8.77125388	     -8.61122241	     36.89213246	     78.81957105	     83.35980432	     11.88954053	     -5.42832724	     30.65598773	     54.87881715	     83.82990080
      2.11666670	     -3.08451725	     -1.04109325	     -2.10451053	      1.61764438	      0.85150147	     -0.04267590	      5.39844058	     -4.07331669	     -6.30146493	      7.17087523	      5.19446169	    -12.01715650	      0.00000000	      4.57755344	     -6.76784282	     -7.06114039	      7.50374478	      5.03275295	     -6.73493641	      0.00000000	    -11.18947065	      2.14541112	     -2.18168613	      8.93227008	     -8.51072331	     36.70601933	     78.72401820	     83.23633766	     11.98443303	     -5.36689021	     30.23816667	     55.00315337	     83.87250389
      2.13333330	     -3.44641582	     -1.01773347	     -2.20705407	      1.61560535	      0.85046590	     -0.04255400	      6.37581932	     -4.12421768	     -6.29120734	      8.06930358	      5.51647682	    -12.02734235	      0.00000000	      5.58471553	     -6.86987014	     -7.02345564	      8.57219133	      5.36060915	     -7.02709943	      0.00000000	    -11.22585835	      2.15640053	     -2.18411047	      8.94763025	     -8.37258514	     36.56701447	     78.53452042	     83.05148868	     11.93432808	     -5.35756088	     29.65100838	     55.15717113	     83.97090439
      2.15000000	     -3.64891718	     -0.99088072	     -2.28079150	      1.61352643	      0.84841555	     -0.04262429	      7.24187150	     -4.20466607	     -6.33184444	      9.01517816	      5.74648591	    -12.13722011	      0.00000000	      6.49117550	     -6.96610127	     -7.06012666	      9.68500290	      5.62360009	     -7.33270378	      0.00000000	    -11.60792965	      2.14789568	     -2.20700881	      9.19895022	     -8.19554158	     36.48665334	     78.37051379	     82.91351706	     12.15488052	     -5.35780284	     29.19936380	     55.29495145	     84.06875229
      2.16666670	     -3.88809495	     -0.96374950	     -2.30766985	      1.61148329	      0.84668953	     -0.04221013	      8.25176711	     -4.29697573	     -6.34676518	     10.14481760	      6.03999448	    -12.31443864	      0.00000000	      7.53511929	     -7.08539163	     -7.06657545	     10.95518829	      5.95236155	     -7.67808943	      0.00000000	    -11.98959702	      2.13178873	     -2.22645488	      9.49853890	     -8.00392655	     36.39472454	     78.21935287	     82.78599718	     12.41969679	     -5.35544895	     28.75243691	     55.48286454	     84.17712533
      2.18333330	     -3.99094535	     -0.95047409	     -2.31254064	      1.60891527	      0.84462167	     -0.04116014	      9.15106116	     -4.38310273	     -6.46471707	     11.26405787	      6.23769347	    -12.51893827	      0.00000000	      8.48533376	     -7.24085324	     -7.21748353	     12.23788330	      6.15000298	     -7.97575366	      0.00000000	    -12.72017959	      2.09176892	     -2.20974335	      9.97970141	     -7.77414324	     36.25378311	     78.10983672	     82.71893238	     12.91922685	     -5.36222945	     28.44253253	     55.62186732	     84.23138660
      2.20000000	     -4.71472535	     -0.91417990	     -2.24030570	      1.60557178	      0.84172632	     -0.04013786	     10.94607137	     -4.48164323	     -6.41825674	     12.82930242	      6.66288728	    -12.82703554	      0.00000000	     10.38301765	     -7.42595735	     -7.18248519	     14.00932788	      6.56753345	     -8.43172379	      0.00000000	    -12.58472437	      2.10932521	     -2.31747100	     10.13348878	     -7.46983735	     36.07951171	     77.85274187	     82.53792337	     12.98847433	     -5.41176026	     27.76861148	     56.11005768	     84.46600781
      2.21666670	     -4.80380912	     -0.91122123	     -2.16178317	      1.60117725	      0.83974569	     -0.03970016	     12.09398057	     -4.56911546	     -6.38820874	     14.39934376	      7.16623713	    -13.18556391	      0.00000000	     11.58131539	     -7.62434647	     -7.23952136	     15.67272178	      7.04640416	     -8.81263496	      0.00000000	    -13.41270457	      2.11740769	     -2.32055967	     10.70364524	     -7.22177110	     35.90848330	     77.62485270	     82.45642036	     13.55826641	     -5.40117506	     27.41922029	     56.36889728	     84.58859264
      2.23333330	     -5.45837067	     -0.86315395	     -2.04244006	      1.59698886	      0.83688109	     -0.03974730	     13.95384811	     -4.72151378	     -6.47971989	     16.09879387	      7.55776716	    -13.51473662	      0.00000000	     13.57180924	     -7.83948939	     -7.41516004	     17.54220824	      7.41134398	     -9.05051070	      0.00000000	    -13.62947574	      2.08358319	     -2.39629677	     11.18728957	     -6.86135372	     35.70021843	     77.45729270	     82.34134297	     13.98491311	     -5.48154733	     26.97076842	     56.99303703	     84.84789104
      2.25000000	     -5.91239372	     -0.80588925	     -1.88567947	      1.59358777	      0.83462689	     -0.04003031	     15.61240294	     -4.93568252	     -6.55810309	     17.84254792	      7.99869776	    -13.88216915	      0.00000000	     15.31179168	     -8.01278006	     -7.60547800	     19.32049428	      7.85237321	     -9.17574201	      0.00000000	    -14.14353552	      2.07147836	     -2.49930186	     11.81917785	     -6.53616561	     35.44509992	     77.33555419	     82.25359235	     14.56046302	     -5.50176868	     26.56869560	     57.58838003	     85.12535477
      2.26666670	     -5.83856043	     -0.74916106	     -1.67557722	      1.59107569	      0.83320174	     -0.04010301	     16.52726979	     -5.19884486	     -6.74856139	     19.31266396	      8.16332342	    -14.14929414	      0.00000000	     16.30804732	     -8.14252674	     -7.85720110	     20.76237612	      7.89796599	     -9.26757221	      0.00000000	    -15.25803307	      2.05504956	     -2.53548610	     12.67115164	     -6.23398783	     35.21071817	     77.28562067	     82.23049790	     15.57798536	     -5.39651565	     26.33996701	     57.79862943	     85.16005349
      2.28333330	     -6.72460221	     -0.66850017	     -1.43803759	      1.58898812	      0.83050284	     -0.03982367	     18.61271389	     -5.46101965	     -6.71740809	     21.08510251	      8.86174473	    -14.62618218	      0.00000000	     18.51439935	     -8.30435825	     -7.96857047	     22.56453632	      8.81120098	     -8.96378941	      0.00000000	    -15.30129585	      2.03221269	     -2.66470343	     13.06645193	     -5.89074003	     34.66083214	     77.37398717	     82.18657806	     16.00290191	     -5.50046613	     26.02170872	     58.77878433	     85.42229449
      2.30000000	     -6.72075978	     -0.61022532	     -1.14662177	      1.58635190	      0.82826777	     -0.04005553	     19.46149549	     -5.75466333	     -6.86379110	     22.41031223	      9.02898200	    -14.89334052	      0.00000000	     19.45219490	     -8.39774187	     -8.13613930	     23.76910816	      8.87196606	     -8.92440175	      0.00000000	    -16.32591469	      2.04491303	     -2.72542278	     13.98498415	     -5.62898932	     34.35000589	     77.32091479	     82.16893091	     17.14735463	     -5.33968671	     25.76547284	     59.06674045	     85.45100758
      2.31666670	     -7.58739742	     -0.53830458	     -0.89247212	      1.58288398	      0.82487900	     -0.04065347	     21.40050114	     -6.02540246	     -6.74450163	     24.04307315	      9.70615086	    -15.36220479	      0.00000000	     21.48348030	     -8.53469492	     -8.26694475	     25.31215293	      9.94888585	     -8.20680118	      0.00000000	    -16.38622588	      2.03869981	     -2.84734191	     14.42991449	     -5.29175126	     33.47264318	     77.45170318	     82.15306431	     17.67416047	     -5.39000803	     25.34321035	     60.31414845	     85.69483491
      2.33333330	     -7.82386536	     -0.44453377	     -0.63218911	      1.57863529	      0.82244306	     -0.04194429	     22.51586838	     -6.36811125	     -6.70384959	     25.40152144	     10.22468039	    -15.77086740	      0.00000000	     22.61866008	     -8.51711051	     -8.31453990	     26.39888489	     10.49683454	     -8.02946084	      0.00000000	    -17.15516400	      2.03683871	     -2.92450596	     15.38386727	     -5.10316280	     32.95375134	     77.50212268	     82.15062499	     18.85852077	     -5.18001201	     24.96305730	     60.93472688	     85.78002422
      2.35000000	     -8.55631152	     -0.32495910	     -0.48451431	      1.57417212	      0.81817166	     -0.04342683	     24.29153344	     -6.72162093	     -6.59352874	     26.82920097	     10.74311443	    -16.09634493	      0.00000000	     24.28393365	     -8.49552433	     -8.43083100	     27.48636508	     11.24461720	     -7.52157239	      0.00000000	    -17.43312377	      1.97025292	     -2.93714954	     16.37322962	     -4.89861241	     32.12733160	     77.88907944	     82.16159839	     19.88909889	     -5.01337440	     24.46792391	     61.97799404	     85.90255535
      2.36666670	     -9.36572311	     -0.19875513	     -0.38822490	      1.57007113	      0.81409182	     -0.04502285	     26.22430628	     -7.10794783	     -6.45875240	     28.32579242	     10.99713390	    -16.26320146	      0.00000000	     26.05031899	     -8.46284802	     -8.63847120	     28.61808137	     11.77616689	     -7.00499038	      0.00000000	    -17.59928393	      2.01280550	     -2.99723440	     17.40384251	     -4.76555035	     31.14912763	     78.41369051	     82.20626715	     20.98443525	     -4.70092109	     23.84484199	     63.02321304	     86.02921883
      2.38333330	     -9.93977655	     -0.05989102	     -0.32823947	      1.56722441	      0.81169998	     -0.04606063	     27.84218156	     -7.49238962	     -6.33322154	     29.70636426	     11.47819600	    -16.53739108	      0.00000000	     27.48744057	     -8.36141982	     -8.62844074	     29.68553090	     12.41014299	     -6.94401835	      0.00000000	    -18.03803003	      2.01129110	     -2.98567052	     18.76026245	     -4.65296738	     30.34523997	     78.75462505	     82.22880183	     22.38050356	     -4.33613854	     23.30613926	     63.69597748	     86.05745664
      2.40000000	    -10.82747802	      0.06970471	     -0.34394435	      1.56591750	      0.81051344	     -0.04658136	     29.73080973	     -7.82941000	     -6.14680290	     31.03683134	     11.78310943	    -16.37865413	      0.00000000	     29.18847947	     -8.31983537	     -8.71550016	     30.77245764	     12.82927180	     -6.62679055	      0.00000000	    -18.01998617	      2.08594174	     -2.91391604	     19.76971666	     -4.54482392	     29.22170296	     79.24619937	     82.28068353	     23.47320517	     -3.90256883	     22.58637405	     64.55353253	     86.04761157
